<svg xmlns="http://www.w3.org/2000/svg" width="56.091" height="100.223" viewBox="0 0 56.091 100.223"><defs><style>.a{fill-rule:evenodd;}.b{fill:#003d2a;}</style></defs><g transform="translate(-1648.855 -3554.18)"><path class="a" d="M1687.394,3577.842l.007-.012,0,.03-.01-.018c-.283.475-.717.911-.31,1.748,1.3.386,2.707-.079,4.4.039-.383-1.743.5-3.406-.9-4.8a11.777,11.777,0,0,1-3.375.588C1686.209,3576.311,1686.953,3577.065,1687.394,3577.842Zm2.89-2c-.1.673-.16,1.107-.223,1.542l0-.032c-.336,1-1.183.106-1.753.758C1687.982,3576.135,1689.519,3576.54,1690.285,3575.838Z"/><path class="a" d="M1668.645,3568.292c.922-.531.265-1.921,1.339-2.424,1.768.574,3.3,1.772,5.173,2.16a2.292,2.292,0,0,1-.831,2C1672.3,3569.992,1670.715,3568.319,1668.645,3568.292Z"/><path class="a" d="M1704.321,3565.287c-1.288,1.6-3.345,1-4.955,1.771l2.223.178c-1.131.191-2.235.729-3.335.187a3.415,3.415,0,0,1-.485-2.125,10.67,10.67,0,0,0,2.538.118C1701.656,3565.506,1702.972,3564.818,1704.321,3565.287Z"/><path class="a" d="M1675.879,3559.642a19.359,19.359,0,0,0,4.109,3.082c.853-.2,1.151-.723,1.392-1.516a13.723,13.723,0,0,0-4.652-3.347A4.2,4.2,0,0,1,1675.879,3559.642Zm.912-.42a6.325,6.325,0,0,1,3.545,2.484A6.713,6.713,0,0,1,1676.79,3559.222Z"/><path class="a" d="M1689.572,3567.138c.55-.035,1.1.089,1.173.685.138,1.16.146,2.335.208,3.5l-.283.059-1.06-1.961A1.857,1.857,0,0,0,1689.572,3567.138Z"/><path class="a" d="M1689.551,3567.1c.008.011.013.022.021.033h-.017Z"/><path class="a" d="M1686.606,3567.432a5.891,5.891,0,0,0,.087,2.214A1.457,1.457,0,0,1,1686.606,3567.432Z"/><path class="a" d="M1687.657,3571.819c.116-.584.387-.784.932-.7C1688.622,3571.849,1688.2,3571.833,1687.657,3571.819Z"/><path class="a" d="M1687.879,3567.949c-.615.217-.879-.256-1.225-.531C1687.123,3567.388,1687.649,3567.215,1687.879,3567.949Z"/><path class="a" d="M1689.49,3567.164h0C1689.436,3567.213,1689.453,3567.2,1689.49,3567.164Z"/><path class="a" d="M1689.49,3567.164l.06-.057s0,.032,0,.032l-.064.024Z"/><path class="a" d="M1685.1,3569.948h0l.012,0h.015Z"/><path class="a" d="M1686.322,3572.271l0,0-.026,0Z"/><path class="a" d="M1679.282,3576.351a2.622,2.622,0,0,0,2.257-.507,1.767,1.767,0,0,0,2.153.094c.244.472.266.958-.352,1.051a27.6,27.6,0,0,1-3.22.259C1679.585,3577.263,1679.345,3576.851,1679.282,3576.351Z"/><path class="a" d="M1683.689,3575.9l.023.023a.168.168,0,0,1-.019.011l0-.009C1683.689,3575.92,1683.689,3575.912,1683.689,3575.9Z"/><path class="a" d="M1682.668,3574.175c.254-.443.218-1.1.995-1.606.01,1.265.018,2.3.026,3.333A3.032,3.032,0,0,1,1682.668,3574.175Z"/><path class="a" d="M1680.334,3572.863c.374.06.7-.011,1.006.4C1680.814,3573.457,1680.533,3573.375,1680.334,3572.863Z"/><path class="a" d="M1679.086,3573.518c.19.157.46.362.647.513h0s-.075-.07-.075-.07l.035-.081a.657.657,0,0,0-.087.068c.082.232.193.48.3.784C1679.176,3574.533,1679.165,3574.02,1679.086,3573.518Z"/><path class="a" d="M1682.011,3567.905l-.049-.079.025-.005Z"/><path class="a" d="M1675.635,3584.672l.307.083c.026-.1.052-.2.077-.3l.025-.014.017-.012c1.057.3,1.48-.258,1.7-1.1.014-.056.027-.112.04-.171a19.327,19.327,0,0,0-1.662,1.31c-.011,0-.023.012-.023.012v0h0c0,.007-.079-.022-.081-.014s-.04-.011-.041-.007c-.026.1-.235.253-.336.226l-.046-.015-.079-.021h0c0,.006.04.027.041.034l.024,0C1675.6,3584.675,1675.627,3584.676,1675.635,3584.672Z"/><path class="a" d="M1683.326,3610.421a1.8,1.8,0,0,0-.04-.216c-.009-.035-.06-.059-.092-.087h0l.131.3h0Z"/><path class="a" d="M1683.326,3610.421h0c0,.029.008.058.012.087s0,.053.005.079c.005-.03.011-.06.015-.09Z"/><path class="a" d="M1677.366,3567.4c0,.006,0,.012.005.019h0Z"/><path class="a" d="M1676.751,3559.076l0,0-.008-.009Z"/><path class="a" d="M1696.867,3573.25l-.016-.007c0,.006,0,.012,0,.018Z"/><path class="a" d="M1695.67,3580.407l-.008-.015-.006.007Z"/><path class="a" d="M1684.782,3570.413l-.012,0-.007.013Z"/><path class="a" d="M1692.265,3561.041c0,.005,0,.01,0,.015h.011Z"/><path class="a" d="M1683.47,3561.91c0,.006,0,.011,0,.017l.012,0Z"/><path class="a" d="M1704.313,3566.713c0,.007,0,.013,0,.02l.008,0Z"/><path class="a" d="M1680.75,3625.084c-.359-1.285-.942-1.954-2.124-2-.844-.035-1.682-.187-2.525-.269a5.057,5.057,0,0,0-1.365-.047c-.256.047-.743-.667-.85.205-.013.1-.742.24-1.1.164-2.129-.457-4.281-.856-6.355-1.5s-4.514-.459-6.021-2.473c-1.931-.535-3.858-1.083-5.8-1.589a1.368,1.368,0,0,0-.813.178.546.546,0,0,0-.2.442.48.48,0,0,0,.281.322c2.554.945,5.091,1.941,7.675,2.8a89.722,89.722,0,0,0,17.139,3.584C1679.318,3624.973,1679.941,3625.011,1680.75,3625.084Z"/><path class="a" d="M1674.455,3578.339c.192.074.531-.231.831-.374-1.1-.619-2.077-1.184-3.07-1.711a1.7,1.7,0,0,0-.958-.277,5.719,5.719,0,0,1-3.291-.691c-1.093-.464-2.216-.855-3.327-1.28l-.213.275c.233.293.41.75.709.853,1.556.535,3.143.985,4.722,1.453.423.126,1.047.075,1.25.347C1671.966,3578.086,1673.334,3577.907,1674.455,3578.339Z"/><path class="a" d="M1677.814,3564.993c.462-1.031-.481-1.339-1.059-1.831-.883-.751-1.749-1.522-2.622-2.284l.078-.107-.093.094.012.018c-.937,1.185-.95,1.2.022,2.178a20.581,20.581,0,0,0,1.637,1.48C1676.9,3565.437,1677.55,3565.583,1677.814,3564.993Z"/><path class="a" d="M1673.675,3626.553a2.7,2.7,0,0,0-1.516-.047c-.969.126-1.286.72-1.02,1.728a1.458,1.458,0,0,1,1.963-.924,22.027,22.027,0,0,0,2.723.782c1.514.151,3.05.084,4.577.109.042-.152.082-.3.124-.455a10.771,10.771,0,0,0-1.836-.466C1677,3627.149,1675.274,3627.447,1673.675,3626.553Z"/><path class="a" d="M1671.845,3572.887a1.2,1.2,0,0,0-.171-1.125,9.007,9.007,0,0,0-4.7-1.857l1.72,1.951.014-.006c.457.282.941.535,1.387.829.031.02.065.039.1.06a5,5,0,0,1,.456.349C1671.223,3573.593,1671.627,3573.367,1671.845,3572.887Z"/><path class="a" d="M1682.783,3555.569c-.225.3-.625.6-.631.9a3.673,3.673,0,0,0,.448,1.267c.628,1.574,1.523,2.758,3.486,2.378-.866-1.329-1.721-2.666-2.61-3.98A3.155,3.155,0,0,0,1682.783,3555.569Z"/><path class="a" d="M1690.468,3560.137l.271-.33-1.039-1.218.028.026-.014-.024a1.541,1.541,0,0,0,1.818-.7c.007-.011.013-.026.02-.038a2.926,2.926,0,0,0,.151-.283c.052-.115.124-.281.168-.409.153-.448.4-.927.58-1.356l.312.171c-.175.432-.294.764-.431,1.125a1.261,1.261,0,0,0,.3,1.543,9.223,9.223,0,0,1,1,1.3c.153-.995.349-1.98.427-2.981.035-.451-.044-1.195-.309-1.324a7.868,7.868,0,0,0-2.068-.422l.018-.01c-.22-.043-.437-.106-.658-.127-1.372-.129-1.379-.107-1.414,1.3-.015.6-.1,1.2-.153,1.8l-.009-.014c-.255-1.1-.512-2.2-.793-3.407-1.162.939-1.061,2.136-1.277,3.217C1688.455,3558.636,1689.114,3559.951,1690.468,3560.137Z"/><path class="a" d="M1655.4,3642.1c1.191-1.047,2.736-.993,4.15-1.344a3.009,3.009,0,0,0-3.515.052,4.009,4.009,0,0,1-2.408.583,5.163,5.163,0,0,0-3.635,1.061c1.9-.083,3.411-.146,4.92-.22A.851.851,0,0,0,1655.4,3642.1Z"/><path class="a" d="M1659.574,3640.754l-.025.005.007,0Z"/><path class="a" d="M1700.616,3571.84c-.344-.014-.7.37-1.056.571.326.244.631.661.982.7,1.247.146,2.508.187,3.766.209.21,0,.426-.279.639-.429a5.386,5.386,0,0,0-.592-.513,2.744,2.744,0,0,0-.657-.184C1702.78,3572.08,1701.7,3571.885,1700.616,3571.84Z"/><path class="a" d="M1697.586,3558.283a13.936,13.936,0,0,0-1.793,1.57l.019-.011c-.116.144-.356.38-.329.417.348.461.726.921,1,1.245q1.21-1.172,2.3-2.21h0c.014.006.039-.019.054-.015-.01-.009-.016-.031-.026-.04l-.018.007c.022-.305.043-.614.065-.919C1698.431,3558.3,1697.884,3558.094,1697.586,3558.283Z"/><path class="a" d="M1694.083,3594.9c-.547-.5-1.179-.9-1.691-1.43a4.7,4.7,0,0,0-2.137-1.273c-1.179-.355-2.368-.959-2.416-2.51l.426-.468-.429.462a.852.852,0,0,0-.111,1.446,19.151,19.151,0,0,0,1.9,1.417c.638.447,1.305.854,1.943,1.3.994.7,1.974,1.415,2.96,2.123A1.318,1.318,0,0,0,1694.083,3594.9Z"/><path class="a" d="M1653.793,3647.541c1.277-.843,2.547-1.7,3.793-2.584.18-.128.224-.442.322-.684a2.233,2.233,0,0,1-2.209.425c-.551-.244-.745.1-.906.485l-.048-.036-.1.372.061-.008c-1.054,1.008-2.091,2.021-3.144,3.028A6.268,6.268,0,0,0,1653.793,3647.541Z"/><path class="a" d="M1660.034,3648.344h0l.011.015c.032-.119.1-.361.1-.361l-.032-.009c-.011,0-.019-.018-.028-.029a.087.087,0,0,0-.047-.032.715.715,0,0,0-.117-.008.255.255,0,0,1-.07,0l-.066-.018s.006.014.009.021c-.978-.726-1,.192-1.252.722l-.009-.013c-.034.123-.067.247-.1.369l.015-.009c-.358,1.246-1.338,2.355-.649,3.89Q1658.915,3650.612,1660.034,3648.344Z"/><path class="a" d="M1660.044,3648.361l-.01-.018h0Z"/><path class="a" d="M1679.013,3637.379l-.007.014.018,0Z"/><path class="a" d="M1672.362,3637.044c.127.108.245.278.385.3,1.944.284,3.889.56,5.84.779.111.013.277-.466.418-.728A14.649,14.649,0,0,0,1672.362,3637.044Z"/><path class="a" d="M1681.756,3583.1l-.017.01.017,0Z"/><path class="a" d="M1683.542,3586.557a4.309,4.309,0,0,0,.969.675,7.142,7.142,0,0,0-2.021-4.292l.013.022-.747.146a3.2,3.2,0,0,0,.184,1.12A22.334,22.334,0,0,0,1683.542,3586.557Z"/><path class="a" d="M1675.9,3575.085c.3-.023.6-.07.9-.107-.145-.28-.22-.655-.449-.82-.595-.429-1.258-.766-1.894-1.14l.017-.015-.022.012h0l-.184.106.184-.106-.556-.258q.072.249.142.5l-.027.016.028-.013a2.244,2.244,0,0,0,1.766,2.583l-.764-.826A8.451,8.451,0,0,0,1675.9,3575.085Z"/><path class="a" d="M1675.8,3575.84l.028.03h.028a.092.092,0,0,1-.008-.013C1675.83,3575.851,1675.817,3575.845,1675.8,3575.84Z"/><path class="a" d="M1676.346,3631.91c.773.243,1.534.547,2.323.715,1.424.3,1.454.247,1.332-1.134l-3.572.048Z"/><path class="a" d="M1698.473,3592.156c-.159-.218-.247-.468-.42-.556-1.35-.7-2.716-1.369-4.077-2.047A5.845,5.845,0,0,0,1698.473,3592.156Z"/><path class="a" d="M1652.7,3636.827c.023-.032-.167-.309-.294-.344-1.194-.321-2.4-.647-3.553.032.008.154.017.309.025.463,1.123.086,2.246.188,3.371.238C1652.4,3637.223,1652.584,3636.988,1652.7,3636.827Z"/><path class="a" d="M1664.4,3654.4a11.229,11.229,0,0,0-.481-5.731A15.444,15.444,0,0,0,1664.4,3654.4Z"/><path class="a" d="M1664.949,3634.268c-1.464.695-2.587,1.219-3.7,1.771-.1.05-.11.278-.164.425C1662.918,3637,1663.893,3635.973,1664.949,3634.268Z"/><path class="a" d="M1667.666,3641.146a7,7,0,0,1,1.553-.735,6.222,6.222,0,0,1,1.659.214,2.232,2.232,0,0,0-2.418-1.1C1667.782,3639.67,1667.537,3640.282,1667.666,3641.146Z"/><path class="a" d="M1670.305,3631.58c.653-.1,1.33-.186,2-.305.427-.075.846-.193,1.268-.294a9.715,9.715,0,0,0-1.52-.656C1670.8,3630.015,1670.535,3630.253,1670.305,3631.58Z"/><path class="a" d="M1657.255,3632.813a11.419,11.419,0,0,0-1.986.074c.26.313.51.868.785.881a28.883,28.883,0,0,0,3.12-.147A4,4,0,0,0,1657.255,3632.813Z"/><path class="a" d="M1655.243,3632.889h.025l-.007-.009Z"/><path class="a" d="M1662.812,3594.893l-3.994-.312q-.022.23-.043.459a10.181,10.181,0,0,0,3.973.38Q1662.779,3595.156,1662.812,3594.893Z"/><path class="a" d="M1666.649,3626.221l-.167-.192-3.292,1.846.126.254,2.122-.011Z"/><path class="a" d="M1665.445,3628.118h-.006l0,.005Z"/><path class="a" d="M1666.789,3581.823l-4.593-1.5-.16.315a12.047,12.047,0,0,0,4.645,1.511C1666.717,3582.042,1666.753,3581.933,1666.789,3581.823Z"/><path class="a" d="M1677.652,3642.676l-3.2-1.148c-.05.144-.1.288-.148.432C1675.256,3642.727,1676.246,3643.37,1677.652,3642.676Z"/><path class="a" d="M1689.27,3587.37c-.015,1,.858,1.2,1.586,1.657l.711-.117a2.3,2.3,0,0,0-.31-.674c-.376-.394-.8-.742-1.216-1.1a5.215,5.215,0,0,0-.469-.325C1689.467,3587,1689.273,3587.183,1689.27,3587.37Z"/><path class="a" d="M1664.474,3643.383a.843.843,0,0,0-.394.131c-.444.295-.405,1-.635,1.475l-.005-.024-.028.016c-.1-.026-.2-.049-.3-.076a2.052,2.052,0,0,1-.127.294l-.042-.011,0,.016c0-.007,0-.014.006-.022s.029.019.023.023c-.031.115-.041.235-.072.35h.028l.67.17.008.018c0-.006,0-.012,0-.018s.013-.011.019-.017c.111-.106.249-.2.359-.309l.009-.008c.015-.015.028-.031.043-.046s.016-.017.023-.025.022-.031.034-.047.014-.018.02-.029a.442.442,0,0,0,.039-.08c.327-.932.775-.845,1.351-.234a8.24,8.24,0,0,0,.682.558,3.561,3.561,0,0,0-.208-.671C1665.574,3644.222,1665.4,3643.29,1664.474,3643.383Z"/><path class="a" d="M1650.142,3631.509c1.388.363,2.595.941,3.957.7C1652,3631.166,1651.269,3631.046,1650.142,3631.509Z"/><path class="a" d="M1657.943,3644.223l-.022.012c-.005.012-.009.025-.014.038l.029-.019C1657.939,3644.243,1657.941,3644.234,1657.943,3644.223Z"/><path class="a" d="M1660.486,3642.484c-.191-.1-.38-.273-.574-.278-1.138-.03-1.765.631-1.969,2.017.748-.4,1.505-.79,2.236-1.222C1660.332,3642.912,1660.386,3642.66,1660.486,3642.484Z"/><path class="a" d="M1656.461,3622.555c.034-.156.067-.311.1-.467-.786-.261-1.556-.588-2.361-.769-1.3-.293-1.333-.237-1.591,1.161C1653.874,3620.905,1655.174,3622.351,1656.461,3622.555Z"/><path class="a" d="M1672.318,3637.023c0,.009.007.017.01.025l.033,0-.011-.01Z"/><path class="a" d="M1669.794,3635.9c-.35.021-.661.664-.99,1.023l.22.334c1.081-.963,2.188-.583,3.295-.235C1671.861,3635.825,1670.77,3635.841,1669.794,3635.9Z"/><path class="a" d="M1658.99,3628.052c.676.188,1.372.306,2.385.517a2.5,2.5,0,0,0-2.242-1.286c-.158-.025-.353.18-.532.28C1658.729,3627.732,1658.827,3628.008,1658.99,3628.052Z"/><path class="a" d="M1657.851,3623.744l4.02.868C1661.012,3623.538,1659.632,3623.154,1657.851,3623.744Z"/><path class="a" d="M1665.575,3596.111c.778-.081,1.569-.028,2.355-.041.343-.006.685-.032,1.286-.061-1.7-1.062-3.214-.592-4.706-.423C1664.68,3596.134,1665.053,3596.165,1665.575,3596.111Z"/><path class="a" d="M1664.49,3595.59l.02,0a.029.029,0,0,0,0-.007Z"/><path class="a" d="M1651.525,3625.988c1.733.9,2.587,1.047,3.965.615C1654.064,3626.336,1652.979,3625.666,1651.525,3625.988Z"/><path class="a" d="M1662,3644.306a6.561,6.561,0,0,0,.41-.955,2.9,2.9,0,0,0-1.067.208,5.346,5.346,0,0,0-.923,1.032c.066.219.094.565.192.586a1,1,0,0,0,.717-.125A2.575,2.575,0,0,0,1662,3644.306Z"/><path class="a" d="M1680.6,3620.76l.01.019c0-.024,0-.048.007-.072Z"/><path class="a" d="M1682.289,3614.972c-.437,1.01-.906,2.013-1.343,3.023,0-.006-.035-.021-.034-.026l-.015.059h.053c-.057.223-.1.449-.156.671l0-.016c-.06.674-.117,1.35-.178,2.025q.911-2.852,1.823-5.7Z"/><path class="a" d="M1658.756,3606.337c-.437,1.01-.906,2.012-1.343,3.022,0-.006-.035-.021-.034-.026l-.016.059h.053c-.057.223-.1.449-.155.671l0-.016c-.06.674-.117,1.35-.178,2.025q.911-2.853,1.823-5.7Z"/><path class="a" d="M1665.443,3591.647l3.738.35A3.37,3.37,0,0,0,1665.443,3591.647Z"/><path class="a" d="M1684.4,3595.293a4.124,4.124,0,0,1-.032-1.594c-1.31,1.169-1.156,1.606,1.213,2.728C1685.169,3596.056,1684.6,3595.754,1684.4,3595.293Z"/><path class="a" d="M1669.53,3645.579l2.524.829c-.66-.762-1.342-1.447-2.376-1.3Z"/><path class="a" d="M1659.122,3589.178l5.221,1.379A14.236,14.236,0,0,0,1659.122,3589.178Z"/><path class="a" d="M1664.342,3590.563l.05.027.017-.009Z"/><path class="a" d="M1676.223,3595.081l-2.219.978C1674.8,3595.911,1676.148,3596.023,1676.223,3595.081Z"/><path class="a" d="M1694.76,3556.764l-.644,2.411C1695.132,3558.045,1695.132,3558.045,1694.76,3556.764Z"/><path class="a" d="M1668.485,3643.463l-.047-.013.028.023Z"/><path class="a" d="M1666.213,3643.894c.191-.664.559-1.013,1.318-.721.294.113.6.188.907.276a3.489,3.489,0,0,0-.9-.708,6.425,6.425,0,0,0-1.42-.2Q1666.164,3643.22,1666.213,3643.894Z"/><path class="a" d="M1666.216,3643.932c0-.012,0-.025,0-.038,0,.016-.011.031-.015.048Z"/><path class="a" d="M1678.7,3590.457c0,.009,0,.016,0,.025l.014-.006Z"/><path class="a" d="M1679.294,3592.069a1.444,1.444,0,0,1-.6-1.587c-.566.208-.864.562-.453,1.126.379.52.841.98,1.267,1.467A.931.931,0,0,0,1679.294,3592.069Z"/><path class="a" d="M1689.053,3600.837l-1.839-1.451-.245.3,1.778,1.387Z"/><path class="a" d="M1681.026,3588.973l-1.124,1.1.411.386,1-1.223Z"/><path class="a" d="M1675.344,3617.814a7.293,7.293,0,0,0-.883.258c.057.123.125.357.171.353a10.156,10.156,0,0,0,1.039-.191C1675.507,3618.016,1675.405,3617.8,1675.344,3617.814Z"/><path class="a" d="M1664.787,3583.235l.122.05c.016.006.033.01.049.015l-.032-.028Z"/><path class="a" d="M1661.673,3582.4l3.117.824a25.417,25.417,0,0,1-2.987-1.217C1661.759,3582.138,1661.681,3582.4,1661.673,3582.4Z"/><path class="a" d="M1677.8,3583.123c0,.01,0,.02-.007.03l.017-.012Z"/><path class="a" d="M1697.4,3587.964l.691-.092c-.11-.154-.191-.381-.341-.443a1.517,1.517,0,0,0-.609.011Z"/><path class="a" d="M1684.352,3600.473c.233.74.3,1.559,1.089,2.034q-.38-1.088-.758-2.178Z"/><path class="a" d="M1683.437,3596.689c-1.286-.668-1.357-.649-1.868.357Z"/><path class="a" d="M1668.168,3649.713q-.424-.779-.849-1.559l-.4.3Z"/><path class="a" d="M1675.632,3610.508c-.133.489-.268.977-.39,1.468-.01.041.1.114.071.239l.493-1.846C1675.779,3610.47,1675.643,3610.472,1675.632,3610.508Z"/><path class="a" d="M1691.118,3596.92a16.832,16.832,0,0,1-2.323-1.013c-.044.122-.12.368-.13.365Z"/><path class="a" d="M1666.289,3613.427c-.089.332-.088.332-.088.332l1.748.461s0,0,.087-.331Z"/><path class="a" d="M1674.609,3648.257l-1.134-1.22-.3.363Z"/><path class="a" d="M1691.87,3601.5l-1.215-.754.894,1.111Z"/><path class="a" d="M1677.885,3596.593c.082.116.14.279.252.334a1.655,1.655,0,0,0,.564.021c-.178-.2-.256-.359-.375-.4A1.076,1.076,0,0,0,1677.885,3596.593Z"/><path class="a" d="M1669.491,3582.691a11.945,11.945,0,0,1,2.042,1,3.772,3.772,0,0,1,.161-.414Z"/><path class="a" d="M1694.016,3598.24l-1.434-.549,1.28.83Z"/><path class="a" d="M1673.048,3614.857c-.111.326-.089.158-.123.2.383.123.776.206,1.159.329.017-.065-.026.1.062-.235Z"/><path class="a" d="M1665.618,3637.134a1.958,1.958,0,0,0,.378-.2.474.474,0,0,0-.1-.253,2.038,2.038,0,0,0-.407.125Z"/><path class="a" d="M1676.649,3588.086a.415.415,0,0,0-.161.014c.266-.97.606-1.936-.664-2.545-.122-.059-.148-.314-.176-.569-.011-.105-.022-.21-.04-.3-.809.217-.967.685-.516,1.368s.926,1.367,1.39,2.049c.279.18.556.362.842.529a2.546,2.546,0,0,0,.171-.229C1677.214,3588.3,1676.933,3588.187,1676.649,3588.086Z"/><path class="a" d="M1667.482,3628.487a1.836,1.836,0,0,0,.46.341c.11.038.274-.078.593-.185a2.7,2.7,0,0,0-.661-.366C1667.759,3628.256,1667.613,3628.411,1667.482,3628.487Z"/><path class="a" d="M1664.091,3577.013a5.639,5.639,0,0,0-.548-.352c-.039-.02-.142.085-.216.133a4.489,4.489,0,0,0,.478.356C1663.848,3577.174,1663.96,3577.079,1664.091,3577.013Z"/><path class="a" d="M1686.162,3585.4l.242.2.281-.12a1.7,1.7,0,0,0-.309-.265C1686.348,3585.2,1686.236,3585.335,1686.162,3585.4Z"/><path class="a" d="M1668.152,3586.949l.048.043.073.043-.054-.056Z"/><path class="a" d="M1667.087,3586.473l1.065.476-.85-.771Z"/><path class="a" d="M1674.785,3598.569c.1-.1.231-.172.222-.223a2.019,2.019,0,0,0-.159-.424c-.09.082-.256.167-.254.247C1674.6,3598.3,1674.712,3598.427,1674.785,3598.569Z"/><path class="a" d="M1687.332,3558.021l.06-.036,0-.009-.015-.01Z"/><path class="a" d="M1686.617,3558.867l.715-.846-.945.565Z"/><path class="a" d="M1657.813,3594.914q-.118.441-.236.882s0,0,.02.008c.1-.288.214-.572.313-.86C1657.872,3594.933,1657.812,3594.916,1657.813,3594.914Z"/><path class="a" d="M1664.809,3610.664q-.049.412-.1.825.119-.374.238-.748Z"/><path class="a" d="M1691.4,3554.371l-.251-.191-.239.173c.083.063.162.171.249.178S1691.323,3554.429,1691.4,3554.371Z"/><path class="a" d="M1664.983,3630.344h0l-.135-.256c-.043.033-.128.079-.122.1a1.881,1.881,0,0,0,.128.256l.129-.095Z"/><path class="a" d="M1679.042,3587.3l.394-.19c-.079-.058-.162-.167-.235-.161a1.937,1.937,0,0,0-.439.138Z"/><path class="a" d="M1682.592,3611.369h0l-.133-.264c-.073.056-.2.106-.205.168-.008.083.076.175.121.263l.217-.167Z"/><path class="a" d="M1662.576,3638.59h0l.124.085a1.718,1.718,0,0,0,.107-.234c0-.014-.077-.053-.118-.08Q1662.632,3638.476,1662.576,3638.59Z"/><path class="a" d="M1656.494,3603.7l-.156.243c0,.052.008.1.012.157a1.822,1.822,0,0,0,.161-.248C1656.531,3603.818,1656.5,3603.756,1656.494,3603.7Z"/><path class="a" d="M1662.5,3586.276c-.036-.029-.106-.015-.161-.02l.114.177.165.016A.672.672,0,0,0,1662.5,3586.276Z"/><path class="a" d="M1688.5,3599.072q-.348-.6-.694-1.2C1687.794,3598.411,1687.908,3598.879,1688.5,3599.072Z"/><path class="a" d="M1687.809,3597.868c0-.012,0-.022,0-.034-.043-.1-.085-.2-.128-.3l.112.307Z"/><path class="a" d="M1669.353,3582.651c0,.011.007.022.012.033l.12.032-.1-.047Z"/><path class="a" d="M1669.168,3582.252a1.5,1.5,0,0,0-.488-.185,2.118,2.118,0,0,0,.285.365,1.964,1.964,0,0,0,.388.219A.973.973,0,0,0,1669.168,3582.252Z"/><path class="a" d="M1686.516,3556.9c.014.051.011.124.045.148s.1,0,.155,0l-.071-.243Z"/><path class="a" d="M1676.186,3578.471l.03-.021c0-.013.006-.025.01-.039l-.026.018C1676.194,3578.443,1676.191,3578.458,1676.186,3578.471Z"/><path class="a" d="M1675.546,3579.157a1.768,1.768,0,0,0,.467-.268,1.158,1.158,0,0,0,.173-.419,2.524,2.524,0,0,0-.369.283A2.73,2.73,0,0,0,1675.546,3579.157Z"/><path class="a" d="M1686.114,3560.114l-.028,0,0,.006q-.015.712-.03,1.424l.013.013.009-.023Q1686.1,3560.827,1686.114,3560.114Z"/><path class="a" d="M1686.936,3559.661l.158-.171c-.043,0-.1-.013-.122.008S1686.95,3559.585,1686.936,3559.661Z"/><path class="a" d="M1664.957,3583.3a1.881,1.881,0,0,0,.228.185,2.381,2.381,0,0,0,.3.14,1.89,1.89,0,0,0-.262-.228A1.219,1.219,0,0,0,1664.957,3583.3Z"/><path class="a" d="M1682.155,3593.005c-.031-.035-.057-.094-.093-.1s-.095.031-.177.061Z"/><path class="a" d="M1692.49,3597.656l.091.035c-.024-.016-.047-.038-.072-.053a6.407,6.407,0,0,0-1.266-.684l-.125-.033a.819.819,0,0,1,.105.052C1691.646,3597.2,1692.068,3597.43,1692.49,3597.656Z"/><path class="a" d="M1682.456,3591.109l.044.015-.026-.026Z"/><path class="a" d="M1682.5,3591.124a1.639,1.639,0,0,0,.219.2,2.012,2.012,0,0,0,.3.144,1.9,1.9,0,0,0-.251-.233A1.308,1.308,0,0,0,1682.5,3591.124Z"/><path class="a" d="M1668.232,3649.864c0-.029,0-.058,0-.087l-.063-.064.041.075Z"/><path class="a" d="M1668.324,3650.164c-.03-.1-.062-.2-.092-.3a1.539,1.539,0,0,0,.01.207C1668.247,3650.1,1668.3,3650.132,1668.324,3650.164Z"/><path class="a" d="M1694.259,3587.418l-.07-.065-.017.1Z"/><path class="a" d="M1668.273,3587.036a1.939,1.939,0,0,0,.18.173c.029.024.089.01.135.013Z"/><path class="a" d="M1670.429,3580.329l-.32.032c.066.008.132.016.2.017C1670.348,3580.379,1670.388,3580.346,1670.429,3580.329Z"/><path class="a" d="M1670.109,3580.361l-.118-.014-.433.1.444-.074Z"/><path class="a" d="M1674.185,3620.241l.242-.377.423-.254.054-.027-.059.02-.429.242Z"/><path class="a" d="M1668.5,3646.719a1.847,1.847,0,0,0,.078.25c0-.124,0-.248,0-.372C1668.55,3646.637,1668.5,3646.683,1668.5,3646.719Z"/><path class="a" d="M1683.367,3610.955c-.008-.122-.016-.244-.024-.367a2.263,2.263,0,0,0-.032.241C1683.309,3610.869,1683.347,3610.913,1683.367,3610.955Z"/><path class="a" d="M1668.958,3651.536c-.02-.028-.073-.033-.111-.049l.218.234A1.806,1.806,0,0,0,1668.958,3651.536Z"/><path class="a" d="M1671.971,3641.381l.107.067,0-.1Z"/><path class="a" d="M1670.413,3587.332l-.039.083.113,0Z"/><path class="a" d="M1693.683,3561.069l.018-.01q-.03-.541-.06-1.083l-.017-.022c0,.01,0,.021,0,.032Q1693.651,3560.527,1693.683,3561.069Z"/><path class="a" d="M1658.09,3615.545q-.085.322-.171.644l.009.016q.091-.334.181-.67Z"/><path class="a" d="M1655.521,3637.218c.772.143,1.541.308,2.317.408.147.019.327-.221.492-.342-.138-.15-.249-.372-.42-.437a2.5,2.5,0,0,0-2.4.357l-.187.273Z"/><path class="a" d="M1693.935,3589.532l.041.02c-.005-.011-.013-.022-.018-.033l-.583-.506-.009,0Z"/><path class="a" d="M1696.025,3596.448l-.113-.073.095.083Z"/><path class="a" d="M1697.346,3580.836c.377.448.679,1.16,1.146,1.293a37.246,37.246,0,0,0,4.349.823c.227.036.49-.152.737-.236-.147-.208-.255-.549-.446-.606-1.892-.56-3.8-1.073-5.7-1.6l-.014-.021q-.047.177-.094.354Z"/><path class="a" d="M1684.044,3597.2l.148.085-.128-.1-.594-.507-.034.006.013.007Z"/><path class="a" d="M1669.251,3652.553l.018-.01-.146-.759-.058-.063.038.073Q1669.177,3652.174,1669.251,3652.553Z"/><path class="a" d="M1682.439,3599.253l-.251-.43-.019.011c.084.143.168.286.251.429l.125.074Z"/><path class="a" d="M1700.483,3559.662l-.031.006.041.011Z"/><path class="a" d="M1668.659,3647.277c-.02-.057-.039-.115-.058-.172a.272.272,0,0,0,0,.074A.326.326,0,0,0,1668.659,3647.277Z"/><path class="a" d="M1668.6,3647.1c0-.022,0-.044,0-.066l-.024-.071c0,.028,0,.055,0,.082Z"/><path class="a" d="M1663.114,3644.884c-.006-.019-.012-.038-.019-.058a.246.246,0,0,0,0-.064.366.366,0,0,0-.049-.1l.052.163c0,.023,0,.047,0,.071l.019,0c0-.006,0-.011,0-.018Z"/><path class="a" d="M1689.113,3599.606l.578.507.907.6.056.034-.038-.047-.907-.594-.578-.508-.593-.508c-.013,0-.023-.01-.036-.014l.016.027Z"/><path class="a" d="M1699.4,3559.719l-.034-.009h0l.067.04a.781.781,0,0,1,.094.072h0l-.095-.072c.333.088.283.063.283.063s-.028,0-.026-.007a2.745,2.745,0,0,0,.692-.155c-.207-.056-.294-.081-.627-.171a.132.132,0,0,0,0-.021l-.335-.089-.006.02v-.007h0s-.384-.095-.592-.148c.18.158.368.429.576.484Z"/><path class="a" d="M1686.879,3603.97l-1.4-1.437c-.014-.008-.023-.018-.037-.026l.014.041,1.406,1.435.592.507.134.088-.116-.1Z"/><path class="a" d="M1674.771,3648.381l-.094-.083-.068-.041.05.053Z"/><path class="a" d="M1677.309,3607.825l.3.081c.027-.1.055-.192.082-.287Z"/><path class="a" d="M1677.29,3607.836l.019-.011-.028-.008Z"/><path class="a" d="M1677.609,3607.906c0,.007,0,.013-.006.02l.117.074-.092-.089Z"/><path class="a" d="M1675.961,3584.761l-.02-.005a.153.153,0,0,1-.005.02Z"/><path class="a" d="M1687.9,3561.264l.022.056.007,0v0Z"/><path class="a" d="M1677.811,3607.242l.165-.628.5-.588-.007-.013-.51.581-.172.656-.092.337-.009.031.023-.012C1677.746,3607.485,1677.779,3607.363,1677.811,3607.242Z"/><path class="a" d="M1679.811,3556.984a.521.521,0,0,0,.059-.222c.006-.021.011-.042.017-.062l-.348-.086h0l-.1.344.353.093.018-.066Z"/><path class="a" d="M1673.875,3631.454l-.028-.06-.125-.192.11.2Z"/><path class="a" d="M1679.97,3608.526l-.034-.01h0l-.232.229.243-.206Z"/><path class="a" d="M1673.723,3631.2l-.124-.227-.024.006.007,0Z"/><path class="a" d="M1680.2,3608.613a3.6,3.6,0,0,0,.4.079l.011,0h0l1.454.384c-.456-.475-.712-.871-1.028-1.179-.659-.64-.414.354-.7.381l-.049-.025c0,.01-.005.02-.008.029-.027.1-.257.148-.386.223.1.028.305.083.3.084Z"/><path class="b" d="M1663.921,3648.673a11.221,11.221,0,0,1,.481,5.73A15.458,15.458,0,0,1,1663.921,3648.673Zm-5.475.32-.016.008c.033-.122.066-.246.1-.369l.009.013c.249-.53.274-1.448,1.252-.722,0-.007,0-.019-.009-.021l.067.017a.245.245,0,0,0,.07,0,.618.618,0,0,1,.116.008.085.085,0,0,1,.048.031c.009.011.016.026.028.029l.031.008s-.066.241-.1.36l-.011-.015-2.237,4.539C1657.107,3651.348,1658.087,3650.239,1658.446,3648.993Zm10.657,2.8-.039-.073c.019.021.039.042.058.063q.074.379.147.759l-.017.009C1669.2,3652.3,1669.153,3652.048,1669.1,3651.795Zm-.257-.307c.038.015.092.02.112.049a1.927,1.927,0,0,1,.106.185Zm-.6-1.416a1.749,1.749,0,0,1-.01-.207c.031.1.062.2.093.3C1668.3,3650.132,1668.246,3650.105,1668.242,3650.071Zm-.033-.283-.041-.075.063.064c0,.029,0,.058,0,.087C1668.224,3649.838,1668.216,3649.813,1668.209,3649.788Zm-1.288-1.333.4-.3.848,1.559Zm-12.215-2.945-.062.007q.051-.186.1-.372l.048.037c.161-.39.356-.73.906-.485a2.233,2.233,0,0,0,2.209-.426c-.1.242-.142.557-.322.684-1.245.888-2.515,1.742-3.792,2.584a6.25,6.25,0,0,1-2.231,1C1652.616,3647.531,1653.652,3646.517,1654.706,3645.51Zm19.953,2.8-.05-.054.069.041.094.083Zm-14.625.033.01.017Zm13.147-.944.294-.363,1.134,1.22Zm-4.579-.221a.284.284,0,0,1,0-.073l-.019-.054v-.083c.008.023.016.047.024.071s0,.044,0,.066l.058.172A.344.344,0,0,1,1668.6,3647.179Zm-.1-.46c-.006-.035.048-.082.074-.122,0,.124,0,.248,0,.372A1.891,1.891,0,0,1,1668.5,3646.718Zm1.027-1.14q.073-.234.148-.47c1.035-.148,1.716.537,2.376,1.3Zm-5.94.146-.669-.171-.028,0c.031-.115.041-.236.072-.35,0,0-.008-.009-.016-.015l.033.008a1.992,1.992,0,0,0,.127-.293c.1.027.2.05.3.076a.255.255,0,0,0,.027-.016l.005.024c.23-.472.191-1.179.635-1.475a.847.847,0,0,1,.394-.131c.925-.093,1.1.84,1.49,1.434a3.466,3.466,0,0,1,.208.67,8.114,8.114,0,0,1-.681-.558c-.576-.611-1.024-.7-1.351.234a.47.47,0,0,1-.038.081c-.005.01-.013.018-.019.028s-.021.031-.034.047a.269.269,0,0,0-.023.026l-.042.046-.009.007c-.11.106-.248.2-.359.309l-.019.016a.142.142,0,0,1,0,.018Zm-.65-.537a.12.12,0,0,1,0,.017Zm-2.33-.009c-.1-.022-.127-.368-.192-.587a5.314,5.314,0,0,1,.923-1.032,2.9,2.9,0,0,1,1.067-.208,6.457,6.457,0,0,1-.41.955,2.568,2.568,0,0,1-.671.747.95.95,0,0,1-.526.145A.911.911,0,0,1,1660.609,3645.178Zm2.33.009s0,0,0,0h0s0,0,.007.007Zm.152-.29c0-.025,0-.049,0-.072l-.052-.162a.349.349,0,0,1,.05.1.241.241,0,0,1,0,.063c.006.019.012.039.018.058h0a.053.053,0,0,0,0,.017Zm-5.17-.663.022-.012c0,.011,0,.02-.006.031l-.029.018C1657.912,3644.26,1657.916,3644.247,1657.921,3644.235Zm1.991-2.029c.193.005.382.181.574.278-.1.176-.155.428-.307.517-.731.432-1.488.819-2.236,1.221C1658.147,3642.837,1658.774,3642.176,1659.912,3642.206Zm6.3,1.688q-.05-.674-.1-1.35a6.406,6.406,0,0,1,1.42.2,3.452,3.452,0,0,1,.9.707c-.3-.089-.614-.163-.907-.276-.758-.292-1.127.057-1.318.721,0,.013,0,.025,0,.038l-.018.01C1666.2,3643.925,1666.209,3643.911,1666.213,3643.895Zm2.225-.445.047.013-.019.011Zm5.867-1.49.149-.432,3.2,1.148a2.6,2.6,0,0,1-1.166.3A3.563,3.563,0,0,1,1674.305,3641.959Zm-20.679-.565a4.009,4.009,0,0,0,2.407-.583,3.008,3.008,0,0,1,3.515-.051c-1.414.35-2.959.3-4.15,1.344a.852.852,0,0,1-.488.131c-1.509.074-3.017.137-4.92.221A5.163,5.163,0,0,1,1653.626,3641.394Zm18.344-.014.111-.037,0,.1Zm-3.512-1.856a2.233,2.233,0,0,1,2.418,1.1,6.262,6.262,0,0,0-1.658-.215,7.05,7.05,0,0,0-1.553.735C1667.538,3640.282,1667.781,3639.67,1668.459,3639.524Zm-8.91,1.235.025-.006-.018.01Zm3.027-2.169h0l.113-.229c.041.028.122.066.118.081a1.852,1.852,0,0,1-.106.234Zm16.011-.47c-1.952-.218-3.9-.494-5.84-.779-.14-.02-.259-.19-.386-.3a14.656,14.656,0,0,1,6.645.348c-.139.258-.3.727-.414.727Zm-20.75-.493c-.777-.1-1.545-.265-2.318-.408l-.2.26c.062-.092.125-.183.186-.274a2.506,2.506,0,0,1,2.4-.357c.171.065.282.288.42.438-.159.116-.332.343-.475.343Zm21.168-.234.006-.014.011.018Zm-10.2-.469c.329-.36.641-1,.99-1.024.977-.061,2.067-.076,2.525,1.123-1.107-.347-2.214-.728-3.3.236Zm-16.552.292c-1.124-.051-2.248-.152-3.37-.239-.008-.154-.017-.309-.026-.463,1.156-.679,2.359-.352,3.553-.031.127.034.317.312.294.343-.116.159-.3.39-.445.39Zm13.234-.415a2.023,2.023,0,0,1,.407-.126.481.481,0,0,1,.1.253,1.937,1.937,0,0,1-.379.2Zm6.834.221.032.01.011.011c-.011,0-.022,0-.033,0S1672.322,3637.032,1672.319,3637.023Zm-11.229-.559c.053-.147.064-.375.163-.426,1.111-.551,2.233-1.076,3.7-1.77-.865,1.4-1.675,2.34-2.943,2.34A3.233,3.233,0,0,1,1661.089,3636.464Zm-5.036-2.7c-.275-.013-.525-.568-.785-.881a11.467,11.467,0,0,1,1.987-.074,4.008,4.008,0,0,1,1.918.808c-.885.055-1.771.158-2.653.158C1656.364,3633.779,1656.208,3633.776,1656.053,3633.768Zm-.792-.89.006.008-.025,0Zm23.407-.254c-.789-.168-1.549-.471-2.322-.715.026-.124.055-.249.083-.372l3.571-.048c.086.967.1,1.284-.392,1.284A5.268,5.268,0,0,1,1678.669,3632.625Zm-28.527-1.115c1.127-.463,1.854-.343,3.957.7a3.713,3.713,0,0,1-.662.058A13.494,13.494,0,0,1,1650.141,3631.51Zm21.914-1.184a9.727,9.727,0,0,1,1.52.656c-.423.1-.841.219-1.268.294-.671.119-1.348.207-2,.3C1670.535,3630.253,1670.8,3630.015,1672.055,3630.325Zm1.777,1.079c-.037-.068-.074-.135-.11-.2.04.063.083.127.125.192l.028.06Zm-.25-.419-.007,0,.024-.006c.041.075.083.15.124.227Zm-8.857-.8c-.005-.017.079-.062.122-.1.046.085.09.171.135.256h0l-.129.094A2.031,2.031,0,0,1,1664.726,3630.182Zm3.216-1.355a1.856,1.856,0,0,1-.46-.34c.132-.077.277-.231.393-.211a2.679,2.679,0,0,1,.661.366,3.224,3.224,0,0,1-.547.193A.154.154,0,0,1,1667.942,3628.828Zm-8.952-.775c-.162-.045-.26-.32-.389-.49.179-.1.373-.3.532-.28a2.505,2.505,0,0,1,2.241,1.286C1660.362,3628.358,1659.666,3628.241,1658.99,3628.053Zm13.169-1.546a2.706,2.706,0,0,1,1.516.047c1.6.893,3.325.6,5.013.727a10.759,10.759,0,0,1,1.836.466c-.042.151-.083.3-.124.455-.457-.008-.914-.007-1.372-.007-1.072,0-2.144,0-3.2-.1a21.937,21.937,0,0,1-2.723-.782,1.459,1.459,0,0,0-1.963.925C1670.872,3627.227,1671.19,3626.633,1672.159,3626.507Zm-8.969,1.369,3.292-1.846.167.192q-.605.949-1.212,1.9l-2.121.012Zm2.248.242h.006l-.01.005Zm-13.913-2.131c1.454-.321,2.539.349,3.965.615a4.37,4.37,0,0,1-1.328.233A5.735,5.735,0,0,1,1651.525,3625.987Zm27.174-1.092a89.657,89.657,0,0,1-17.139-3.584c-2.584-.856-5.121-1.852-7.675-2.8a.48.48,0,0,1-.281-.323.544.544,0,0,1,.2-.442,1.366,1.366,0,0,1,.813-.178c1.939.505,3.866,1.054,5.8,1.588,1.508,2.014,3.952,1.833,6.021,2.474s4.227,1.042,6.356,1.5c.354.076,1.083-.06,1.1-.164.072-.59.318-.455.548-.32a.541.541,0,0,0,.3.115,5.07,5.07,0,0,1,1.366.048c.842.083,1.68.234,2.525.269,1.182.051,1.765.72,2.124,2C1679.941,3625.011,1679.318,3624.973,1678.7,3624.9Zm-20.848-1.151c1.781-.59,3.161-.206,4.02.867Zm-5.239-1.264c.258-1.4.288-1.454,1.59-1.161.8.182,1.575.508,2.361.77-.035.155-.068.311-.1.467C1655.175,3622.351,1653.874,3620.9,1652.612,3622.48Zm27.99-1.719.016-.053c0,.024,0,.049-.006.072Zm.191-2.078,0,.016c.057-.222.1-.448.155-.67h-.053c.005-.019.01-.04.016-.059,0,0,.034.019.034.026.438-1.01.906-2.013,1.343-3.023.051.011.1.02.15.032q-.911,2.851-1.823,5.7C1680.676,3620.032,1680.732,3619.356,1680.793,3618.682Zm-6.376,1.164.429-.242.059-.02-.054.027-.424.254c-.081.127-.161.251-.242.377Zm.215-1.421c-.047,0-.114-.23-.171-.353a7.4,7.4,0,0,1,.883-.258c.061-.01.163.2.327.42a10.23,10.23,0,0,1-1.039.191Zm-16.712-2.236.171-.644.019-.01c-.061.224-.12.448-.181.67Zm15.005-1.135c.009-.012.015-.005.02,0s.025.032.1-.2l1.1.291c-.045.167-.055.208-.058.218h0s0,.007,0,.017C1673.7,3615.26,1673.307,3615.177,1672.925,3615.053Zm1.163.313h0Zm-7.887-1.608.088-.332,1.748.462-.087.331Zm9.042-1.783c.122-.49.257-.979.39-1.467.011-.036.148-.039.174-.139l-.493,1.846C1675.347,3612.09,1675.231,3612.017,1675.242,3611.975Zm-17.983-1.929,0,.016c.056-.222.1-.448.155-.671l-.053,0,.016-.06c0,.005.033.02.034.027.438-1.011.906-2.013,1.343-3.023l.149.031q-.911,2.852-1.823,5.7C1657.142,3611.4,1657.2,3610.72,1657.259,3610.047Zm24.995,1.226c.006-.062.132-.112.205-.168.044.088.089.176.133.263h0l-.217.168C1682.331,3611.448,1682.246,3611.356,1682.254,3611.273Zm-17.446-.609.139.078c-.079.249-.158.5-.238.747Q1664.76,3611.077,1664.808,3610.664Zm18.5.165a2.391,2.391,0,0,1,.032-.241c0-.027,0-.053,0-.08s-.009-.058-.013-.086h0c.01.026.021.051.032.076,0,.03-.01.061-.016.091.008.123.016.245.024.367C1683.347,3610.912,1683.309,3610.869,1683.31,3610.829Zm-.116-.711c.032.029.083.052.093.087a1.908,1.908,0,0,1,.039.216h0v0C1683.282,3610.32,1683.237,3610.219,1683.194,3610.118Zm-2.577-1.422s0,0,0,0h0l-.011,0a3.838,3.838,0,0,1-.4-.079.143.143,0,0,1,.006-.021l-.237-.065-.024.013-.242.206c.076-.076.154-.153.232-.229l-.034-.009c.129-.074.359-.121.386-.223l.008-.029.049.026c.284-.027.039-1.021.7-.381.316.308.573.7,1.028,1.178Zm-3.014-.77.005-.02-.3-.081.381-.206c-.027.1-.054.192-.082.287l.019.006.092.088Zm-.323-.108.028.007-.018.011Zm.419-.23c.03-.113.062-.225.092-.338.058-.218.115-.437.172-.656l.51-.581.006.013-.5.588-.165.628c-.032.121-.065.243-.1.364l-.023.013C1677.694,3607.608,1677.7,3607.6,1677.7,3607.588Zm9.754-3.1-.592-.506-1.406-1.435c0-.014-.01-.028-.015-.041.014.008.023.018.037.026l1.4,1.437.592.507.116.1Zm-31.115-.541.156-.243c.006.052.037.113.017.151a1.776,1.776,0,0,1-.161.249C1656.346,3604.052,1656.342,3604,1656.338,3603.948Zm28.014-3.474.33-.144q.38,1.088.758,2.177C1684.653,3602.032,1684.584,3601.214,1684.352,3600.474Zm6.3.27,1.215.754q-.161.178-.321.357Zm-3.685-1.06.245-.3,1.839,1.452-.306.233Zm3.629,1.025-.907-.6-.579-.507-.6-.507-.015-.028c.012,0,.022.01.035.015l.593.507.578.508.907.594.038.048Zm-8.179-1.446-.251-.429.019-.011c.083.144.168.286.251.43l.105.084Zm5.389-1.395c0-.01-.01-.019-.015-.028-.039-.1-.075-.2-.113-.306.043.1.085.2.128.3,0,.012,0,.023,0,.035q.347.6.694,1.2C1687.908,3598.879,1687.794,3598.411,1687.809,3597.868Zm-13.214.3c0-.08.163-.165.253-.247a2.017,2.017,0,0,1,.16.424c.008.051-.12.125-.223.223C1674.711,3598.427,1674.6,3598.3,1674.595,3598.169Zm17.987-.478,1.433.549c-.051.094-.1.187-.153.28Zm-.092-.035c-.423-.226-.844-.458-1.266-.683a.791.791,0,0,0-.105-.052l.126.033a6.423,6.423,0,0,1,1.266.684c.025.015.048.038.073.053Zm-8.446-.453c-.2-.169-.4-.338-.594-.507a.092.092,0,0,0-.013-.007l.034-.007.594.508.128.1Zm-.607-.514-1.868.358C1682.08,3596.039,1682.15,3596.021,1683.437,3596.689Zm-5.3.238c-.112-.056-.17-.218-.252-.334a1.074,1.074,0,0,1,.441-.046c.119.041.2.2.375.4-.085,0-.161,0-.227,0s-.11.006-.157.006A.4.4,0,0,1,1678.137,3596.927Zm10.529-.654c.01,0,.086-.244.13-.366a16.916,16.916,0,0,0,2.322,1.013Zm7.246.1.113.073-.018.01Zm-11.548-2.676a4.127,4.127,0,0,0,.033,1.594c.206.461.771.763,1.179,1.135C1683.209,3595.3,1683.055,3594.868,1684.364,3593.7Zm-19.854,1.888c1.491-.17,3-.639,4.706.423-.6.029-.944.055-1.286.061-.259,0-.518,0-.777,0a13.488,13.488,0,0,0-1.578.043c-.108.011-.21.018-.3.018A.689.689,0,0,1,1664.51,3595.587Zm11.713-.506c-.074.943-1.428.831-2.219.979Zm15.346-1.237c-.638-.448-1.305-.855-1.943-1.3a19.005,19.005,0,0,1-1.9-1.417.852.852,0,0,1,.111-1.446l.428-.461c-.142.156-.284.311-.426.467.048,1.552,1.237,2.155,2.416,2.51a4.689,4.689,0,0,1,2.137,1.273c.512.525,1.144.935,1.691,1.43a1.323,1.323,0,0,1,.446,1.07C1693.543,3595.258,1692.563,3594.542,1691.568,3593.844Zm-33.991,1.952q.117-.441.235-.882s.06.019.1.031c-.1.288-.214.572-.313.859C1657.58,3595.8,1657.577,3595.8,1657.578,3595.8Zm6.93-.216s0,0,0,.007l-.02,0Zm-5.733-.541c.014-.152.028-.305.043-.458l3.994.313c-.021.175-.043.351-.065.526a7.9,7.9,0,0,1-1.005.063A11.411,11.411,0,0,1,1658.774,3595.039Zm19.468-3.431c-.411-.564-.113-.918.453-1.126a1.445,1.445,0,0,0,.6,1.588.93.93,0,0,1,.216,1.005C1679.082,3592.588,1678.621,3592.128,1678.242,3591.608Zm3.643,1.359c.083-.031.134-.068.178-.061s.061.065.093.1Zm16.548-.811a5.856,5.856,0,0,1-4.457-2.6c1.362.678,2.728,1.348,4.078,2.047.172.089.261.338.42.557Zm-32.989-.509a3.368,3.368,0,0,1,3.737.35Zm17.276-.323a1.642,1.642,0,0,1-.219-.2,1.286,1.286,0,0,1,.265.112,1.819,1.819,0,0,1,.251.233A1.974,1.974,0,0,1,1682.72,3591.324Zm-.263-.215.018-.01c.009.008.017.018.026.026Zm-18.114-.546.067.018-.017.009C1664.377,3590.581,1664.358,3590.572,1664.342,3590.563Zm-5.219-1.385a14.228,14.228,0,0,1,5.221,1.379Zm19.576,1.279.01.018-.014.006C1678.7,3590.473,1678.7,3590.465,1678.7,3590.457Zm1.2-.388,1.124-1.1.287.259-1,1.223Zm14.032-.537-.569-.514.009-.005.583.506c0,.011.012.022.017.033Zm-4.665-2.162c0-.188.2-.372.3-.559a5.2,5.2,0,0,1,.47.325c.415.358.84.705,1.215,1.1a2.31,2.31,0,0,1,.311.674l-.712.117C1690.127,3588.569,1689.255,3588.369,1689.27,3587.371Zm-11.945,1.263c-.286-.167-.564-.349-.843-.529-.464-.683-.934-1.361-1.39-2.05s-.294-1.151.515-1.368c.018.091.029.2.04.3.028.254.054.51.176.569,1.269.609.929,1.575.663,2.545.055-.005.116-.03.161-.014.285.1.566.212.848.318-.059.079-.161.229-.171.229Zm19.818-1.193a1.523,1.523,0,0,1,.609-.011c.15.063.231.289.341.443l-.692.092C1697.3,3587.769,1697.224,3587.6,1697.144,3587.44Zm-2.955-.087.071.065-.088.031Zm-23.775-.021.073.079-.113,0Zm8.348-.249a1.87,1.87,0,0,1,.439-.138c.073-.007.156.1.235.161l-.393.19Zm4.781-.526a22.443,22.443,0,0,1-1.6-2.329,3.18,3.18,0,0,1-.183-1.12l.746-.147-.013-.022a7.143,7.143,0,0,1,2.021,4.292A4.331,4.331,0,0,1,1683.542,3586.557Zm-15.09.651a1.887,1.887,0,0,1-.18-.172l.316.186h-.073A.1.1,0,0,1,1668.453,3587.208Zm-.253-.216-.048-.043.067.03.054.057Zm-1.112-.52.215-.294q.424.387.849.771Zm-4.632-.04c-.038-.06-.076-.117-.114-.177h.054a.167.167,0,0,1,.106.019.677.677,0,0,1,.118.173Zm23.707-1.03c.073-.068.185-.206.214-.19a1.668,1.668,0,0,1,.308.265l-.281.12Zm-10.221-.647c-.091-.026-.182-.05-.273-.074a.416.416,0,0,0,.323-.229s.01,0,.02,0l.006,0c-.025.1-.051.2-.076.3l.02,0-.025.015A.17.17,0,0,0,1675.941,3584.756Zm-.287-.077-.015,0,.028.007Zm-.083,0c0-.007-.044-.028-.041-.034h0l.079.02.027.009c-.007,0-.034,0-.04.007A.239.239,0,0,0,1675.571,3584.676Zm.066,0h0Zm0,0h0Zm.517-.224a19.587,19.587,0,0,1,1.645-1.294c-.013.058-.027.114-.04.17-.175.684-.489,1.181-1.168,1.181A1.829,1.829,0,0,1,1676.152,3584.448Zm-.039.026s-.022,0-.041-.007-.039-.011-.039-.007a.034.034,0,0,1-.015,0s0,0,0-.007l.025-.015.017-.012.091.024-.017.016c-.011,0-.023.012-.023.012Zm-6.622-1.783,2.2.581a4.022,4.022,0,0,0-.161.414A11.952,11.952,0,0,0,1669.491,3582.691Zm-4.306.794a1.825,1.825,0,0,1-.227-.186,1.277,1.277,0,0,1,.266.1,1.915,1.915,0,0,1,.262.228A2.334,2.334,0,0,1,1665.185,3583.486Zm-.277-.2-.121-.05.138.037.032.027A.474.474,0,0,1,1664.908,3583.285Zm-3.236-.884c.008,0,.087-.262.13-.394a25.517,25.517,0,0,0,2.987,1.217Zm16.131.722.01.018-.017.012C1677.8,3583.143,1677.8,3583.133,1677.8,3583.122Zm3.952-.02v.006l-.018,0Zm21.086-.151a37.15,37.15,0,0,1-4.35-.823c-.467-.133-.768-.846-1.146-1.293l-.021.008q.045-.178.093-.355l.015.021c1.9.527,3.808,1.04,5.7,1.6.192.057.3.4.447.605a2.539,2.539,0,0,1-.678.24A.4.4,0,0,1,1702.842,3582.952Zm-33.477-.268c0-.01-.007-.022-.012-.033l.036.018.1.048Zm-.4-.251a2.118,2.118,0,0,1-.284-.365,1.5,1.5,0,0,1,.488.184.975.975,0,0,1,.184.4A1.978,1.978,0,0,1,1668.965,3582.433Zm-6.928-1.793.16-.314,4.593,1.5c-.036.11-.073.218-.108.328A12.038,12.038,0,0,1,1662.037,3580.64Zm7.955-.292.117.014-.107.011-.443.073Zm25.665.051.005-.006.007.015Zm-25.35-.02c-.066,0-.132-.009-.2-.017l.32-.032a.362.362,0,0,1-.12.049Zm16.777-.788c-.407-.837.027-1.273.31-1.748-.442-.778-1.186-1.532-.187-2.421a11.8,11.8,0,0,0,3.376-.588c1.4,1.39.519,3.053.9,4.8a12.717,12.717,0,0,0-1.935.049c-.43.034-.842.069-1.241.069A4.282,4.282,0,0,1,1687.084,3579.591Zm1.223-1.484a.93.93,0,0,1,.865-.257c.363.023.7.045.888-.5l0,.032c.062-.435.126-.869.222-1.542C1689.519,3576.54,1687.981,3576.135,1688.307,3578.106Zm-.913-.264.01.017,0-.029Zm-11.578.912a2.572,2.572,0,0,1,.37-.283,1.166,1.166,0,0,1-.173.419,1.8,1.8,0,0,1-.467.268A2.72,2.72,0,0,1,1675.817,3578.754Zm.383-.325.026-.018c0,.013-.006.026-.01.039l-.029.02C1676.191,3578.458,1676.194,3578.442,1676.2,3578.429Zm-1.745-.09c-1.12-.433-2.488-.254-3.346-1.4-.2-.272-.827-.221-1.25-.348-1.579-.468-3.166-.917-4.721-1.453-.3-.1-.477-.56-.71-.853l.213-.275c1.111.424,2.234.815,3.327,1.28a5.719,5.719,0,0,0,3.291.69,1.7,1.7,0,0,1,.958.277c.993.526,1.966,1.091,3.07,1.711-.268.127-.568.385-.766.385A.176.176,0,0,1,1674.455,3578.34Zm5.638-1.092c-.515,0-.748-.405-.81-.9a2.625,2.625,0,0,0,2.257-.507,1.767,1.767,0,0,0,2.153.094.028.028,0,0,1,0-.008.234.234,0,0,1,0-.027l.024.023a.207.207,0,0,1-.019.012c.244.472.266.958-.351,1.051a27.551,27.551,0,0,1-3.221.26Zm-16.287-.1a4.543,4.543,0,0,1-.478-.356c.073-.048.177-.153.216-.133a5.689,5.689,0,0,1,.547.352,1.374,1.374,0,0,1-.27.14A.03.03,0,0,1,1663.8,3577.15Zm18.863-2.974c.253-.444.218-1.1,1-1.606.01,1.265.017,2.3.026,3.333A3.03,3.03,0,0,1,1682.667,3574.176Zm-6.867,1.665c.017,0,.03.011.048.016a.062.062,0,0,0,.008.013l-.027,0Zm-1.766-2.583-.028.013.027-.016c-.047-.166-.094-.331-.142-.5l.556.258.022-.012-.017.015c.636.374,1.3.711,1.894,1.14.228.165.3.54.449.82-.3.038-.6.083-.9.106a7.976,7.976,0,0,1-.862-.071l.763.826A2.244,2.244,0,0,1,1674.035,3573.258Zm5.052.26c.153.127.358.284.529.42a.058.058,0,0,0-.008.008c.082.233.193.479.3.784C1679.177,3574.532,1679.165,3574.021,1679.086,3573.518Zm.529.42a.845.845,0,0,1,.079-.06l-.036.081s.074.073.075.071v0C1679.7,3574,1679.657,3573.97,1679.615,3573.938Zm-8.97-.849a5.178,5.178,0,0,0-.457-.349c-.031-.021-.064-.04-.1-.06-.447-.294-.931-.547-1.388-.829l-.014.005-1.721-1.951a9.012,9.012,0,0,1,4.7,1.857,1.2,1.2,0,0,1,.171,1.125.694.694,0,0,1-.6.487A.957.957,0,0,1,1670.645,3573.089Zm9.69-.226c.373.06.7-.011,1.005.4a1.327,1.327,0,0,1-.435.094C1680.642,3573.359,1680.469,3573.211,1680.334,3572.863Zm23.973.458c-1.258-.023-2.519-.063-3.767-.209-.35-.041-.655-.458-.981-.7.353-.2.713-.585,1.057-.571,1.085.046,2.164.24,3.081.356a2.732,2.732,0,0,1,.658.184,5.5,5.5,0,0,1,.592.513c-.211.15-.426.429-.635.429Zm-7.455-.079.016.007-.018.011Zm-10.561-.969.031,0a.009.009,0,0,1,0,0C1686.309,3572.274,1686.3,3572.275,1686.291,3572.274Zm1.366-.454c.116-.584.387-.784.932-.7.029.628-.282.7-.715.7C1687.8,3571.823,1687.731,3571.822,1687.657,3571.82Zm1.953-2.394a1.856,1.856,0,0,0-.038-2.287c.55-.035,1.1.089,1.173.685.138,1.16.146,2.335.207,3.5l-.282.06Zm-4.839.984.011,0-.018.01S1684.768,3570.415,1684.771,3570.41Zm-16.126-2.119c.922-.53.265-1.921,1.339-2.424,1.768.575,3.3,1.772,5.174,2.16a2.292,2.292,0,0,1-.831,2C1672.3,3569.993,1670.715,3568.319,1668.645,3568.291Zm16.458,1.656h0l0,0h0a.027.027,0,0,0,.012,0h.015l-.03,0Zm1.5-2.515a5.881,5.881,0,0,0,.087,2.214A1.457,1.457,0,0,1,1686.606,3567.432Zm.048-.014c.47-.03,1-.2,1.225.531a.883.883,0,0,1-.3.055C1687.168,3568,1686.939,3567.644,1686.653,3567.418Zm-4.691.409.025-.006.024.083Zm16.292-.4a3.415,3.415,0,0,1-.485-2.125,4.8,4.8,0,0,0,1.632.122,8.649,8.649,0,0,1,.907,0,7.021,7.021,0,0,0,1.612-.144,4.711,4.711,0,0,1,2.4.015c-1.288,1.6-3.345,1-4.955,1.771l2.223.179a14.4,14.4,0,0,1-2.284.422A2.324,2.324,0,0,1,1698.254,3567.424Zm-20.883-.01c0-.006,0-.012,0-.018l.009.018Zm12.119-.25-.035.032Zm.061-.056s0,.032,0,.032l0-.035c.007.011.013.023.021.034h-.017l-.064.024Zm14.762-.395.012.019-.008,0C1704.316,3566.727,1704.314,3566.719,1704.313,3566.713Zm-28.524-2.173a20.683,20.683,0,0,1-1.637-1.479c-.972-.98-.959-.993-.022-2.178l-.012-.018.093-.094-.077.107c.872.762,1.739,1.532,2.621,2.284.579.491,1.521.8,1.059,1.831a.528.528,0,0,1-.507.354A2.9,2.9,0,0,1,1675.789,3564.54Zm.09-4.9a4.192,4.192,0,0,0,.848-1.781,13.726,13.726,0,0,1,4.652,3.347c-.24.793-.538,1.312-1.391,1.516A19.328,19.328,0,0,1,1675.879,3559.642Zm4.456,2.063a6.327,6.327,0,0,0-3.545-2.483A6.709,6.709,0,0,0,1680.335,3561.705Zm3.133.221a.1.1,0,0,1,0-.017l.01.019Zm2.593-.379c.009-.474.02-.949.03-1.424l0-.005c.01,0,.018,0,.028,0-.01.475-.021.951-.032,1.425a.159.159,0,0,1-.008.023Zm9.422-1.29c-.028-.036.214-.272.329-.417l-.019.012a13.9,13.9,0,0,1,1.793-1.57c.3-.188.846.017,1.28.042-.022.305-.043.614-.065.919l.017-.007c.011.009.017.031.027.04a.046.046,0,0,0-.027.007c-.011.006-.021.01-.027.007q-1.1,1.037-2.3,2.211C1696.209,3561.178,1695.831,3560.719,1695.483,3560.257Zm-7.588,1.006.028.052v0l-.007,0Zm5.725-1.279a.3.3,0,0,0,0-.031l.016.022q.03.542.061,1.083l-.018.01Zm-1.357,1.071a.069.069,0,0,0,0-.015l.009.015Zm-9.662-3.316a3.677,3.677,0,0,1-.448-1.267c.005-.305.406-.6.631-.9a3.138,3.138,0,0,1,.693.569c.889,1.314,1.744,2.652,2.61,3.98a3.688,3.688,0,0,1-.7.072C1683.9,3560.189,1683.148,3559.113,1682.6,3557.74Zm4.794.235c.216-1.081.115-2.277,1.277-3.217.282,1.208.538,2.309.793,3.407a.107.107,0,0,0,.009.014c.053-.6.138-1.2.152-1.8.035-1.4.041-1.426,1.414-1.3.221.021.438.084.658.128l-.018.009a7.9,7.9,0,0,1,2.068.423c.265.129.344.873.309,1.324-.078,1-.274,1.986-.426,2.981a9.287,9.287,0,0,0-1-1.3,1.261,1.261,0,0,1-.3-1.543c.137-.361.256-.693.431-1.125l-.312-.171c-.182.428-.427.908-.58,1.356-.044.128-.116.293-.168.409a3.066,3.066,0,0,1-.151.283c-.007.012-.013.027-.02.038a1.541,1.541,0,0,1-1.818.7l.015.024-.028-.026q.519.61,1.039,1.218l-.271.329C1689.114,3559.951,1688.456,3558.636,1687.394,3557.975Zm12.129,1.847h0Zm0,0Zm-.094-.072a1,1,0,0,1,.094.072Zm0,0-.067-.04.035.009c-.208-.055-.4-.327-.576-.484.209.053.592.15.592.149v.007c0-.006.005-.02.005-.02l.335.089a.11.11,0,0,1,0,.021c.334.09.42.115.627.171a2.736,2.736,0,0,1-.691.154c0,.006.026.007.026.007s.006,0,0,0A2.413,2.413,0,0,1,1699.429,3559.75Zm1.023-.082.031-.006.01.017Zm-13.48-.171c.013-.015.046-.012.08-.01a.307.307,0,0,0,.042,0c-.047.05-.094.1-.158.171C1686.95,3559.585,1686.945,3559.528,1686.972,3559.5Zm7.789-2.734c.371,1.28.371,1.28-.644,2.411Zm-8.373,1.822.945-.566-.715.846Zm.992-.622.015.01,0,.009-.061.037Zm-.819-.915c-.034-.025-.031-.1-.045-.148l.129-.1c.023.082.047.162.071.243-.035,0-.077.012-.11.012A.074.074,0,0,1,1686.561,3557.049Zm-7.121-.092c.033-.116.065-.229.1-.344l.349.086-.016.062a.534.534,0,0,1-.06.222c-.006.022-.012.044-.018.066Zm11.723-2.426c-.087-.007-.166-.115-.25-.178q.12-.088.239-.173l.251.191c-.08.057-.162.16-.237.16Z"/></g></svg>